<svg xmlns="http://www.w3.org/2000/svg" width="440" height="320" viewBox="0 0 440 320"><defs><style>.a{fill:#fff;}.b{fill:#19345e;}.b,.c{font-size:18px;font-family:Poppins-Regular, Poppins;}.c{fill:#0056b3;}</style></defs><g transform="translate(-301 -909)"><rect class="a" width="440" height="320" transform="translate(301 909)"/><text class="b" transform="translate(301 930)"><tspan x="0" y="0">First Name</tspan></text><text class="b" transform="translate(301 978.667)"><tspan x="0" y="0">Last Name</tspan></text><text class="b" transform="translate(301 1027.333)"><tspan x="0" y="0">Birthdate</tspan></text><text class="b" transform="translate(301 1076)"><tspan x="0" y="0">Nationality</tspan></text><text class="b" transform="translate(301 1173.333)"><tspan x="0" y="0">Email</tspan></text><text class="b" transform="translate(301 1222)"><tspan x="0" y="0">Phone</tspan></text><text class="b" transform="translate(301 1124.667)"><tspan x="0" y="0">Address</tspan></text><text class="b" transform="translate(438 930)"><tspan x="0" y="0">:</tspan></text><text class="b" transform="translate(438 978.667)"><tspan x="0" y="0">:</tspan></text><text class="b" transform="translate(438 1027.333)"><tspan x="0" y="0">:</tspan></text><text class="b" transform="translate(438 1076)"><tspan x="0" y="0">:</tspan></text><text class="b" transform="translate(438 1124.667)"><tspan x="0" y="0">:</tspan></text><text class="b" transform="translate(438 1173.333)"><tspan x="0" y="0">:</tspan></text><text class="b" transform="translate(438 1222)"><tspan x="0" y="0">:</tspan></text><text class="b" transform="translate(482 930)"><tspan x="0" y="0">Aulia</tspan></text><text class="b" transform="translate(482 978.667)"><tspan x="0" y="0">Rahmani</tspan></text><text class="b" transform="translate(482 1027.333)"><tspan x="0" y="0">30 Juni 1995</tspan></text><text class="b" transform="translate(482 1076)"><tspan x="0" y="0">Indonesia</tspan></text><text class="b" transform="translate(482 1124.667)"><tspan x="0" y="0">Malang</tspan></text><text class="c" transform="translate(482 1173.333)"><tspan x="0" y="0">aulia@alterra.id</tspan></text><text class="b" transform="translate(482 1222)"><tspan x="0" y="0">085755444555</tspan></text></g></svg>